<?xml version="1.0" encoding="UTF-8"?>
<!DOCTYPE svg PUBLIC "-//W3C//DTD SVG 1.1//EN" "http://www.w3.org/Graphics/SVG/1.1/DTD/svg11.dtd">
<svg xmlns:xlink="http://www.w3.org/1999/xlink" xmlns="http://www.w3.org/2000/svg" version="1.1" id="Ebene_1" x="0px" y="0px" width="841.891px" height="595.281px" viewBox="0 0 841.891 595.281" enable-background="new 0 0 841.891 595.281" xml:space="preserve">
<text transform="matrix(1 0 0 1 244.4519 78.3081)" font-family="'ArialMT'" font-size="12">My scatter plot</text>
<line fill="none" stroke="#000000" stroke-width="0.5" stroke-miterlimit="10" x1="141.732" y1="85.04" x2="137.48" y2="85.04"/>
<line fill="none" stroke="#000000" stroke-width="0.5" stroke-miterlimit="10" x1="141.732" y1="113.386" x2="137.48" y2="113.386"/>
<line fill="none" stroke="#000000" stroke-width="0.5" stroke-miterlimit="10" x1="141.732" y1="141.732" x2="137.48" y2="141.732"/>
<line fill="none" stroke="#000000" stroke-width="0.5" stroke-miterlimit="10" x1="141.732" y1="170.078" x2="137.48" y2="170.078"/>
<line fill="none" stroke="#000000" stroke-width="0.5" stroke-miterlimit="10" x1="141.732" y1="198.424" x2="137.48" y2="198.424"/>
<line fill="none" stroke="#000000" stroke-width="0.5" stroke-miterlimit="10" x1="141.732" y1="226.771" x2="137.48" y2="226.771"/>
<line fill="none" stroke="#000000" stroke-width="0.5" stroke-miterlimit="10" x1="141.732" y1="255.118" x2="137.48" y2="255.118"/>
<line fill="none" stroke="#000000" stroke-width="0.5" stroke-miterlimit="10" x1="141.732" y1="283.465" x2="137.48" y2="283.465"/>
<line fill="none" stroke="#000000" stroke-width="0.5" stroke-miterlimit="10" x1="141.732" y1="311.812" x2="137.48" y2="311.812"/>
<line fill="none" stroke="#000000" stroke-width="0.5" stroke-miterlimit="10" x1="141.732" y1="340.159" x2="137.48" y2="340.159"/>
<line fill="none" stroke="#000000" stroke-width="0.5" stroke-miterlimit="10" x1="141.732" y1="368.505" x2="137.48" y2="368.505"/>
<line fill="none" stroke="#000000" stroke-width="0.5" stroke-miterlimit="10" x1="141.732" y1="368.504" x2="141.732" y2="372.756"/>
<line fill="none" stroke="#000000" stroke-width="0.5" stroke-miterlimit="10" x1="170.079" y1="368.504" x2="170.079" y2="372.756"/>
<line fill="none" stroke="#000000" stroke-width="0.5" stroke-miterlimit="10" x1="198.425" y1="368.504" x2="198.425" y2="372.756"/>
<line fill="none" stroke="#000000" stroke-width="0.5" stroke-miterlimit="10" x1="226.771" y1="368.504" x2="226.771" y2="372.756"/>
<line fill="none" stroke="#000000" stroke-width="0.5" stroke-miterlimit="10" x1="255.117" y1="368.504" x2="255.117" y2="372.756"/>
<line fill="none" stroke="#000000" stroke-width="0.5" stroke-miterlimit="10" x1="283.463" y1="368.504" x2="283.463" y2="372.756"/>
<line fill="none" stroke="#000000" stroke-width="0.5" stroke-miterlimit="10" x1="311.81" y1="368.504" x2="311.81" y2="372.756"/>
<line fill="none" stroke="#000000" stroke-width="0.5" stroke-miterlimit="10" x1="340.156" y1="368.504" x2="340.156" y2="372.756"/>
<line fill="none" stroke="#000000" stroke-width="0.5" stroke-miterlimit="10" x1="368.502" y1="368.504" x2="368.502" y2="372.756"/>
<line fill="none" stroke="#000000" stroke-width="0.5" stroke-miterlimit="10" x1="396.848" y1="368.504" x2="396.848" y2="372.756"/>
<line fill="none" stroke="#000000" stroke-width="0.5" stroke-miterlimit="10" x1="425.194" y1="368.504" x2="425.194" y2="372.756"/>
<text transform="matrix(1 0 0 1 133.3894 382.7534)" font-family="'ArialMT'" font-size="10">250</text>
<text transform="matrix(1 0 0 1 161.7361 382.7534)" font-family="'ArialMT'" font-size="10">300</text>
<text transform="matrix(1 0 0 1 190.0823 382.7534)" font-family="'ArialMT'" font-size="10">350</text>
<text transform="matrix(1 0 0 1 218.429 382.7534)" font-family="'ArialMT'" font-size="10">400</text>
<text transform="matrix(1 0 0 1 246.7751 382.7534)" font-family="'ArialMT'" font-size="10">450</text>
<text transform="matrix(1 0 0 1 275.1218 382.7534)" font-family="'ArialMT'" font-size="10">500</text>
<text transform="matrix(1 0 0 1 303.468 382.7534)" font-family="'ArialMT'" font-size="10">550</text>
<text transform="matrix(1 0 0 1 331.8147 382.7534)" font-family="'ArialMT'" font-size="10">600</text>
<text transform="matrix(1 0 0 1 360.1609 382.7534)" font-family="'ArialMT'" font-size="10">650</text>
<text transform="matrix(1 0 0 1 388.5076 382.7534)" font-family="'ArialMT'" font-size="10">700</text>
<text transform="matrix(1 0 0 1 416.8538 382.7534)" font-family="'ArialMT'" font-size="10">750</text>
<text transform="matrix(1 0 0 1 263.178 400.2534)" font-family="'ArialMT'" font-size="10">Scores X</text>
<rect id="frame" x="141.732" y="85.04" fill="none" stroke="#000000" stroke-width="0.5" stroke-miterlimit="10" width="283.464" height="283.464"/>
<text transform="matrix(1 0 0 1 117.9602 371.1714)" font-family="'ArialMT'" font-size="10">250</text>
<text transform="matrix(1 0 0 1 117.9602 342.8257)" font-family="'ArialMT'" font-size="10">300</text>
<text transform="matrix(1 0 0 1 117.9602 314.479)" font-family="'ArialMT'" font-size="10">350</text>
<text transform="matrix(1 0 0 1 117.9602 286.1328)" font-family="'ArialMT'" font-size="10">400</text>
<text transform="matrix(1 0 0 1 117.9602 257.7866)" font-family="'ArialMT'" font-size="10">450</text>
<text transform="matrix(1 0 0 1 117.9602 229.4404)" font-family="'ArialMT'" font-size="10">500</text>
<text transform="matrix(1 0 0 1 117.9602 201.0942)" font-family="'ArialMT'" font-size="10">550</text>
<text transform="matrix(1 0 0 1 117.9602 172.748)" font-family="'ArialMT'" font-size="10">600</text>
<text transform="matrix(1 0 0 1 117.9602 144.4019)" font-family="'ArialMT'" font-size="10">650</text>
<text transform="matrix(1 0 0 1 117.9602 116.0557)" font-family="'ArialMT'" font-size="10">700</text>
<text transform="matrix(1 0 0 1 117.9602 87.7095)" font-family="'ArialMT'" font-size="10">750</text>
<rect x="141.732" y="411.024" fill="#706F6F" width="5.669" height="5.669"/>
<text transform="matrix(1 0 0 1 150.2356 417.9429)" font-family="'ArialMT'" font-size="10">Group A</text>
<text transform="matrix(1 0 0 1 206.9285 417.9429)" font-family="'ArialMT'" font-size="10">Group B</text>
<text transform="matrix(1 0 0 1 263.6213 417.9429)" font-family="'ArialMT'" font-size="10">Group C</text>
<text transform="matrix(1 0 0 1 320.3142 417.9429)" font-family="'ArialMT'" font-size="10">Group D</text>
<line fill="none" stroke="#000000" stroke-width="0.5" stroke-miterlimit="10" x1="283.464" y1="368.504" x2="283.464" y2="85.04"/>
<line fill="none" stroke="#000000" stroke-width="0.5" stroke-miterlimit="10" x1="141.732" y1="226.771" x2="425.196" y2="226.771"/>
<g id="gA">
	<rect x="285.683471123194" y="175.953670760079" fill="#706F6F" width="5.669" height="5.669"/><rect x="286.549112267351" y="187.606554632233" fill="#706F6F" width="5.669" height="5.669"/><rect x="248.704661351426" y="199.140594250976" fill="#706F6F" width="5.669" height="5.669"/><rect x="276.545968537103" y="221.658863140509" fill="#706F6F" width="5.669" height="5.669"/><rect x="223.099452739747" y="194.549173945869" fill="#706F6F" width="5.669" height="5.669"/><rect x="293.936232383323" y="217.576908821034" fill="#706F6F" width="5.669" height="5.669"/><rect x="192.853050433879" y="248.891385601502" fill="#706F6F" width="5.669" height="5.669"/><rect x="286.814266058117" y="201.961046145304" fill="#706F6F" width="5.669" height="5.669"/><rect x="347.917773470376" y="268.555562120893" fill="#706F6F" width="5.669" height="5.669"/><rect x="247.006988306729" y="188.805328133594" fill="#706F6F" width="5.669" height="5.669"/>
</g>
<circle fill="#1D1D1B" cx="200.551" cy="413.858" r="3.543"/>
<g id="gB">
	<circle fill="#1D1D1B" cx="313.630211278098" cy="347.826352627378" r="3.543"/><circle fill="#1D1D1B" cx="206.165239435625" cy="184.504850071775" r="3.543"/><circle fill="#1D1D1B" cx="244.374796183601" cy="302.179043679374" r="3.543"/><circle fill="#1D1D1B" cx="305.583395688654" cy="231.661916684728" r="3.543"/><circle fill="#1D1D1B" cx="269.365453506679" cy="211.587032141549" r="3.543"/><circle fill="#1D1D1B" cx="345.363399392883" cy="303.698381590548" r="3.543"/><circle fill="#1D1D1B" cx="360.216024460829" cy="324.526430109101" r="3.543"/><circle fill="#1D1D1B" cx="276.562602185832" cy="301.705921577464" r="3.543"/><circle fill="#1D1D1B" cx="352.874935612454" cy="147.522043563337" r="3.543"/><circle fill="#1D1D1B" cx="212.794288451228" cy="281.120857026729" r="3.543"/>
</g>
<polygon fill="#B2B2B2" points="260.787,415.656 257.784,415.64 256.07,418.11 255.156,415.243 252.283,414.372 254.721,412.616   254.66,409.606 257.08,411.388 259.916,410.4 258.973,413.257 "/>
<g id="gC">
	<polygon fill="#B2B2B2" points="302.703046781087,273.881267171305 299.700046781088,273.865267171305 297.985046781087,276.335267171305 297.072046781087,273.468267171305 294.199046781087,272.597267171305 296.637046781087,270.841267171305 296.576046781087,267.831267171305 298.996046781087,269.613267171305 301.832046781087,268.625267171305 300.889046781087,271.482267171305"/><polygon fill="#B2B2B2" points="334.142118352008,288.883594796337 331.139118352008,288.867594796337 329.424118352008,291.337594796337 328.511118352008,288.470594796337 325.638118352008,287.599594796337 328.076118352008,285.843594796337 328.015118352008,282.833594796337 330.435118352008,284.615594796337 333.271118352008,283.627594796337 332.328118352008,286.484594796337"/><polygon fill="#B2B2B2" points="302.407769773035,251.776199706187 299.404769773035,251.760199706187 297.689769773035,254.230199706187 296.776769773035,251.363199706187 293.903769773035,250.492199706187 296.341769773035,248.736199706187 296.280769773035,245.726199706187 298.700769773035,247.508199706187 301.536769773035,246.520199706187 300.593769773035,249.377199706187"/><polygon fill="#B2B2B2" points="275.438259806559,257.328854047407 272.435259806559,257.312854047407 270.720259806559,259.782854047407 269.807259806559,256.915854047407 266.934259806559,256.044854047407 269.372259806559,254.288854047407 269.311259806559,251.278854047407 271.731259806559,253.060854047407 274.567259806559,252.072854047407 273.624259806559,254.929854047407"/><polygon fill="#B2B2B2" points="355.002833663929,137.591893355186 351.999833663929,137.575893355186 350.284833663929,140.045893355186 349.371833663929,137.178893355186 346.498833663929,136.307893355186 348.936833663929,134.551893355186 348.875833663929,131.541893355186 351.295833663929,133.323893355186 354.131833663929,132.335893355186 353.188833663929,135.192893355186"/><polygon fill="#B2B2B2" points="279.953992920457,205.272974550804 276.950992920457,205.256974550805 275.235992920457,207.726974550804 274.322992920457,204.859974550804 271.449992920457,203.988974550804 273.887992920457,202.232974550804 273.826992920457,199.222974550804 276.246992920457,201.004974550804 279.082992920457,200.016974550804 278.139992920457,202.873974550804"/><polygon fill="#B2B2B2" points="286.871126754649,191.035866579409 283.86812675465,191.019866579409 282.15312675465,193.489866579409 281.24012675465,190.622866579409 278.36712675465,189.751866579409 280.80512675465,187.995866579409 280.74412675465,184.985866579409 283.164126754649,186.767866579409 286.00012675465,185.779866579409 285.05712675465,188.636866579409"/><polygon fill="#B2B2B2" points="341.871102802839,226.476967583225 338.868102802839,226.460967583225 337.153102802839,228.930967583225 336.240102802839,226.063967583225 333.367102802839,225.192967583225 335.805102802839,223.436967583225 335.744102802839,220.426967583225 338.164102802839,222.208967583225 341.000102802839,221.220967583225 340.057102802839,224.077967583225"/><polygon fill="#B2B2B2" points="318.162089409976,169.15672820263 315.159089409977,169.14072820263 313.444089409977,171.61072820263 312.531089409977,168.74372820263 309.658089409977,167.87272820263 312.096089409977,166.11672820263 312.035089409977,163.10672820263 314.455089409976,164.88872820263 317.291089409977,163.90072820263 316.348089409977,166.75772820263"/><polygon fill="#B2B2B2" points="382.513916245578,208.549313601667 379.510916245578,208.533313601667 377.795916245578,211.003313601667 376.882916245578,208.136313601667 374.009916245578,207.265313601667 376.447916245578,205.509313601667 376.386916245578,202.499313601667 378.806916245578,204.281313601667 381.642916245578,203.293313601667 380.699916245578,206.150313601667"/>
</g>
<g>
	<line fill="none" stroke="#000000" stroke-miterlimit="10" x1="313.936" y1="410.315" x2="313.936" y2="417.401"/>
	<line fill="none" stroke="#000000" stroke-miterlimit="10" x1="310.393" y1="413.858" x2="317.48" y2="413.858"/>
</g>
<g id="gD">
	<g>
		<line fill="none" stroke="#000000" stroke-miterlimit="10" x1="264.181481583233" y1="163.539679087639" x2="264.181481583233" y2="170.625679087639"/>
		<line fill="none" stroke="#000000" stroke-miterlimit="10" x1="260.638481583233" y1="167.082679087639" x2="267.724481583233" y2="167.082679087639"/>
	</g><g>
		<line fill="none" stroke="#000000" stroke-miterlimit="10" x1="271.720762319466" y1="179.260760625692" x2="271.720762319466" y2="186.346760625692"/>
		<line fill="none" stroke="#000000" stroke-miterlimit="10" x1="268.177762319466" y1="182.803760625692" x2="275.263762319466" y2="182.803760625692"/>
	</g><g>
		<line fill="none" stroke="#000000" stroke-miterlimit="10" x1="360.735381173486" y1="120.57140697266" x2="360.735381173486" y2="127.65740697266"/>
		<line fill="none" stroke="#000000" stroke-miterlimit="10" x1="357.192381173486" y1="124.11440697266" x2="364.278381173486" y2="124.11440697266"/>
	</g><g>
		<line fill="none" stroke="#000000" stroke-miterlimit="10" x1="318.198254416479" y1="191.568040078321" x2="318.198254416479" y2="198.654040078321"/>
		<line fill="none" stroke="#000000" stroke-miterlimit="10" x1="314.655254416479" y1="195.111040078321" x2="321.741254416479" y2="195.111040078321"/>
	</g><g>
		<line fill="none" stroke="#000000" stroke-miterlimit="10" x1="296.165612203366" y1="303.177639182419" x2="296.165612203366" y2="310.263639182419"/>
		<line fill="none" stroke="#000000" stroke-miterlimit="10" x1="292.622612203366" y1="306.720639182419" x2="299.708612203366" y2="306.720639182419"/>
	</g><g>
		<line fill="none" stroke="#000000" stroke-miterlimit="10" x1="217.425218784596" y1="135.781935913728" x2="217.425218784596" y2="142.867935913728"/>
		<line fill="none" stroke="#000000" stroke-miterlimit="10" x1="213.882218784596" y1="139.324935913728" x2="220.968218784596" y2="139.324935913728"/>
	</g><g>
		<line fill="none" stroke="#000000" stroke-miterlimit="10" x1="309.842300999288" y1="135.6320275508" x2="309.842300999288" y2="142.7180275508"/>
		<line fill="none" stroke="#000000" stroke-miterlimit="10" x1="306.299300999288" y1="139.1750275508" x2="313.385300999288" y2="139.1750275508"/>
	</g><g>
		<line fill="none" stroke="#000000" stroke-miterlimit="10" x1="376.872483657279" y1="236.749497488355" x2="376.872483657279" y2="243.835497488355"/>
		<line fill="none" stroke="#000000" stroke-miterlimit="10" x1="373.329483657279" y1="240.292497488355" x2="380.415483657279" y2="240.292497488355"/>
	</g><g>
		<line fill="none" stroke="#000000" stroke-miterlimit="10" x1="304.349129159358" y1="163.307508868937" x2="304.349129159358" y2="170.393508868937"/>
		<line fill="none" stroke="#000000" stroke-miterlimit="10" x1="300.806129159358" y1="166.850508868937" x2="307.892129159358" y2="166.850508868937"/>
	</g><g>
		<line fill="none" stroke="#000000" stroke-miterlimit="10" x1="284.561050268085" y1="159.963021017267" x2="284.561050268085" y2="167.049021017267"/>
		<line fill="none" stroke="#000000" stroke-miterlimit="10" x1="281.018050268085" y1="163.506021017267" x2="288.104050268085" y2="163.506021017267"/>
	</g>
</g>
<text transform="matrix(4.489659e-011 -1 1 4.489659e-011 110.4612 247.0566)" font-family="'ArialMT'" font-size="10">Scores Y</text>
</svg>
