<?xml version="1.0" encoding="UTF-8"?>
<!DOCTYPE svg PUBLIC "-//W3C//DTD SVG 1.1//EN" "http://www.w3.org/Graphics/SVG/1.1/DTD/svg11.dtd">
<svg xmlns:xlink="http://www.w3.org/1999/xlink" xmlns="http://www.w3.org/2000/svg" version="1.1" id="Ebene_1" x="0px" y="0px" width="841.891px" height="595.281px" viewBox="0 0 841.891 595.281" enable-background="new 0 0 841.891 595.281" xml:space="preserve">
<text transform="matrix(1 0 0 1 249.4529 78.3081)" font-family="'ArialMT'" font-size="12">My line chart</text>
<line fill="none" stroke="#000000" stroke-width="0.5" stroke-miterlimit="10" x1="141.732" y1="85.04" x2="137.48" y2="85.04"/>
<line fill="none" stroke="#000000" stroke-width="0.5" stroke-miterlimit="10" x1="141.732" y1="113.386" x2="137.48" y2="113.386"/>
<line fill="none" stroke="#000000" stroke-width="0.5" stroke-miterlimit="10" x1="141.732" y1="141.732" x2="137.48" y2="141.732"/>
<line fill="none" stroke="#000000" stroke-width="0.5" stroke-miterlimit="10" x1="141.732" y1="170.078" x2="137.48" y2="170.078"/>
<line fill="none" stroke="#000000" stroke-width="0.5" stroke-miterlimit="10" x1="141.732" y1="198.424" x2="137.48" y2="198.424"/>
<line fill="none" stroke="#000000" stroke-width="0.5" stroke-miterlimit="10" x1="141.732" y1="226.771" x2="137.48" y2="226.771"/>
<line fill="none" stroke="#000000" stroke-width="0.5" stroke-miterlimit="10" x1="155.905" y1="226.772" x2="155.905" y2="231.024"/>
<line fill="none" stroke="#000000" stroke-width="0.5" stroke-miterlimit="10" x1="184.252" y1="226.772" x2="184.252" y2="231.024"/>
<line fill="none" stroke="#000000" stroke-width="0.5" stroke-miterlimit="10" x1="212.597" y1="226.772" x2="212.597" y2="231.024"/>
<line fill="none" stroke="#000000" stroke-width="0.5" stroke-miterlimit="10" x1="240.944" y1="226.772" x2="240.944" y2="231.024"/>
<line fill="none" stroke="#000000" stroke-width="0.5" stroke-miterlimit="10" x1="269.29" y1="226.772" x2="269.29" y2="231.024"/>
<line fill="none" stroke="#000000" stroke-width="0.5" stroke-miterlimit="10" x1="297.635" y1="226.772" x2="297.635" y2="231.024"/>
<line fill="none" stroke="#000000" stroke-width="0.5" stroke-miterlimit="10" x1="325.983" y1="226.772" x2="325.983" y2="231.024"/>
<line fill="none" stroke="#000000" stroke-width="0.5" stroke-miterlimit="10" x1="354.329" y1="226.772" x2="354.329" y2="231.024"/>
<line fill="none" stroke="#000000" stroke-width="0.5" stroke-miterlimit="10" x1="382.675" y1="226.772" x2="382.675" y2="231.024"/>
<line fill="none" stroke="#000000" stroke-width="0.5" stroke-miterlimit="10" x1="411.021" y1="226.772" x2="411.021" y2="231.024"/>
<text transform="matrix(1 0 0 1 151.7346 241.022)" font-family="'ArialMT'" font-size="10">t1</text>
<text transform="matrix(1 0 0 1 180.0813 241.022)" font-family="'ArialMT'" font-size="10">t2</text>
<text transform="matrix(1 0 0 1 208.4275 241.022)" font-family="'ArialMT'" font-size="10">t3</text>
<text transform="matrix(1 0 0 1 236.7742 241.022)" font-family="'ArialMT'" font-size="10">t4</text>
<text transform="matrix(1 0 0 1 265.1204 241.022)" font-family="'ArialMT'" font-size="10">t5</text>
<text transform="matrix(1 0 0 1 247.3372 255.6865)" font-family="'ArialMT'" font-size="10">Timepoint</text>
<text transform="matrix(1 0 0 1 293.467 241.022)" font-family="'ArialMT'" font-size="10">t6</text>
<text transform="matrix(1 0 0 1 321.8132 241.022)" font-family="'ArialMT'" font-size="10">t7</text>
<text transform="matrix(1 0 0 1 350.1599 241.022)" font-family="'ArialMT'" font-size="10">t8</text>
<text transform="matrix(1 0 0 1 378.5061 241.022)" font-family="'ArialMT'" font-size="10">t9</text>
<text transform="matrix(1 0 0 1 404.072 241.022)" font-family="'ArialMT'" font-size="10">t10</text>
<rect id="frame" x="141.732" y="85.04" fill="none" stroke="#000000" stroke-width="0.5" stroke-miterlimit="10" width="283.464" height="141.732"/>
<text transform="matrix(1 0 0 1 109.0686 87.707)" font-family="'ArialMT'" font-size="10">100%</text>
<text transform="matrix(1 0 0 1 114.6301 116.0532)" font-family="'ArialMT'" font-size="10">80%</text>
<text transform="matrix(1 0 0 1 114.6301 144.3994)" font-family="'ArialMT'" font-size="10">60%</text>
<text transform="matrix(1 0 0 1 114.6301 172.7456)" font-family="'ArialMT'" font-size="10">40%</text>
<text transform="matrix(1 0 0 1 114.6301 201.0918)" font-family="'ArialMT'" font-size="10">20%</text>
<text transform="matrix(1 0 0 1 120.1917 229.438)" font-family="'ArialMT'" font-size="10">0%</text>
<text transform="matrix(4.489659e-011 -1 1 4.489659e-011 102.9861 195.376)" font-family="'ArialMT'" font-size="10">Some percentage</text>
<rect x="144.566" y="266.266" fill="#706F6F" width="5.669" height="5.669"/>
<text transform="matrix(1 0 0 1 153.7791 273.1851)" font-family="'ArialMT'" font-size="10">Group A</text>
<text transform="matrix(1 0 0 1 210.4719 273.1851)" font-family="'ArialMT'" font-size="10">Group B</text>
<text transform="matrix(1 0 0 1 267.1648 273.1851)" font-family="'ArialMT'" font-size="10">Group C</text>
<text transform="matrix(1 0 0 1 323.8577 273.1851)" font-family="'ArialMT'" font-size="10">Group D</text>
<circle fill="#1D1D1B" cx="204.094" cy="269.1" r="3.543"/>
<polygon fill="#B2B2B2" points="265.039,270.898 262.036,270.882 260.322,273.352 259.408,270.485 256.535,269.614 258.973,267.858   258.912,264.848 261.332,266.63 264.168,265.642 263.225,268.5 "/>
<g>
	<line fill="none" stroke="#1D1D1B" stroke-miterlimit="10" x1="314.975" y1="266.595" x2="319.985" y2="271.605"/>
	<line fill="none" stroke="#1D1D1B" stroke-miterlimit="10" x1="314.975" y1="271.605" x2="319.985" y2="266.595"/>
</g>
<text transform="matrix(1 0 0 1 380.5496 273.1851)" font-family="'ArialMT'" font-size="10">Group E</text>
<g>
	<g>
		<line fill="none" stroke="#1D1D1B" stroke-miterlimit="10" x1="368.503" y1="269.102" x2="370.003" y2="269.102"/>
		
			<line fill="none" stroke="#1D1D1B" stroke-miterlimit="10" stroke-dasharray="2.7796,0.9265" x1="370.93" y1="269.102" x2="377.879" y2="269.102"/>
		<line fill="none" stroke="#1D1D1B" stroke-miterlimit="10" x1="378.342" y1="269.102" x2="379.842" y2="269.102"/>
	</g>
</g>
<line fill="none" stroke="#1D1D1B" stroke-miterlimit="10" x1="311.81" y1="269.102" x2="323.149" y2="269.102"/>
<line fill="none" stroke="#1D1D1B" stroke-miterlimit="10" x1="198.425" y1="269.102" x2="209.763" y2="269.102"/>
<line fill="none" stroke="#706F6F" stroke-miterlimit="10" x1="141.732" y1="269.102" x2="153.071" y2="269.102"/>
<g id="gE">
	<line fill="none" stroke="#1D1D1B" stroke-miterlimit="10" stroke-dasharray="3.0416,1.0139" x1="155.905" y1="200.713817076008" x2="184.252" y2="215.633387262738" display="NULL"/><line fill="none" stroke="#1D1D1B" stroke-miterlimit="10" stroke-dasharray="3.0416,1.0139" x1="184.252" y1="215.633387262738" x2="212.599" y2="210.02040671713" display="NULL"/><line fill="none" stroke="#1D1D1B" stroke-miterlimit="10" stroke-dasharray="3.0416,1.0139" x1="212.599" y1="210.02040671713" x2="240.946" y2="201.527515908764" display="NULL"/><line fill="none" stroke="#1D1D1B" stroke-miterlimit="10" stroke-dasharray="3.0416,1.0139" x1="240.946" y1="201.527515908764" x2="269.293" y2="201.879105463223" display="NULL"/><line fill="none" stroke="#1D1D1B" stroke-miterlimit="10" stroke-dasharray="3.0416,1.0139" x1="269.293" y1="201.879105463223" x2="297.64" y2="199.301237007178" display="NULL"/><line fill="none" stroke="#1D1D1B" stroke-miterlimit="10" stroke-dasharray="3.0416,1.0139" x1="297.64" y1="199.301237007178" x2="325.987" y2="211.520639479634" display="NULL"/><line fill="none" stroke="#1D1D1B" stroke-miterlimit="10" stroke-dasharray="3.0416,1.0139" x1="325.987" y1="211.520639479634" x2="354.334" y2="203.099624062569" display="NULL"/><line fill="none" stroke="#1D1D1B" stroke-miterlimit="10" stroke-dasharray="3.0416,1.0139" x1="354.334" y1="203.099624062569" x2="382.681" y2="203.032509425098" display="NULL"/><line fill="none" stroke="#1D1D1B" stroke-miterlimit="10" stroke-dasharray="3.0416,1.0139" x1="382.681" y1="203.032509425098" x2="411.028" y2="211.068656367937" display="NULL"/>
</g>
<g id="gD">
	<g>
		<line fill="none" stroke="#000000" stroke-miterlimit="10" x1="153.4" y1="168.90737953286" x2="158.41" y2="173.91737953286"/>
		<line fill="none" stroke="#000000" stroke-miterlimit="10" x1="153.4" y1="173.91737953286" x2="158.41" y2="168.90737953286"/>
	</g><g>
		<line fill="none" stroke="#000000" stroke-miterlimit="10" x1="408.523" y1="174.477958288652" x2="413.533" y2="179.487958288652"/>
		<line fill="none" stroke="#000000" stroke-miterlimit="10" x1="408.523" y1="179.487958288652" x2="413.533" y2="174.477958288652"/>
	</g><g>
		<line fill="none" stroke="#000000" stroke-miterlimit="10" x1="380.176" y1="162.133577292404" x2="385.186" y2="167.143577292404"/>
		<line fill="none" stroke="#000000" stroke-miterlimit="10" x1="380.176" y1="167.143577292404" x2="385.186" y2="162.133577292404"/>
	</g><g>
		<line fill="none" stroke="#000000" stroke-miterlimit="10" x1="351.829" y1="186.439085258129" x2="356.839" y2="191.449085258129"/>
		<line fill="none" stroke="#000000" stroke-miterlimit="10" x1="351.829" y1="191.449085258129" x2="356.839" y2="186.439085258129"/>
	</g><g>
		<line fill="none" stroke="#000000" stroke-miterlimit="10" x1="323.482" y1="176.957471948878" x2="328.492" y2="181.967471948878"/>
		<line fill="none" stroke="#000000" stroke-miterlimit="10" x1="323.482" y1="181.967471948878" x2="328.492" y2="176.957471948878"/>
	</g><g>
		<line fill="none" stroke="#000000" stroke-miterlimit="10" x1="295.135" y1="171.179945140107" x2="300.145" y2="176.189945140107"/>
		<line fill="none" stroke="#000000" stroke-miterlimit="10" x1="295.135" y1="176.189945140107" x2="300.145" y2="171.179945140107"/>
	</g><g>
		<line fill="none" stroke="#000000" stroke-miterlimit="10" x1="266.788" y1="172.858881765004" x2="271.798" y2="177.868881765004"/>
		<line fill="none" stroke="#000000" stroke-miterlimit="10" x1="266.788" y1="177.868881765004" x2="271.798" y2="172.858881765004"/>
	</g><g>
		<line fill="none" stroke="#000000" stroke-miterlimit="10" x1="238.441" y1="163.092310731258" x2="243.451" y2="168.102310731258"/>
		<line fill="none" stroke="#000000" stroke-miterlimit="10" x1="238.441" y1="168.102310731258" x2="243.451" y2="163.092310731258"/>
	</g><g>
		<line fill="none" stroke="#000000" stroke-miterlimit="10" x1="210.094" y1="160.139007754937" x2="215.104" y2="165.149007754937"/>
		<line fill="none" stroke="#000000" stroke-miterlimit="10" x1="210.094" y1="165.149007754937" x2="215.104" y2="160.139007754937"/>
	</g><g>
		<line fill="none" stroke="#000000" stroke-miterlimit="10" x1="181.747" y1="159.092719390454" x2="186.757" y2="164.102719390454"/>
		<line fill="none" stroke="#000000" stroke-miterlimit="10" x1="181.747" y1="164.102719390454" x2="186.757" y2="159.092719390454"/>
	</g>
	<line fill="none" stroke="#1D1D1B" stroke-miterlimit="10" x1="155.905" y1="171.41237953286" x2="184.252" y2="161.597719390454" display="NULL"/><line fill="none" stroke="#1D1D1B" stroke-miterlimit="10" x1="184.252" y1="161.597719390454" x2="212.599" y2="162.644007754937" display="NULL"/><line fill="none" stroke="#1D1D1B" stroke-miterlimit="10" x1="212.599" y1="162.644007754937" x2="240.946" y2="165.597310731258" display="NULL"/><line fill="none" stroke="#1D1D1B" stroke-miterlimit="10" x1="240.946" y1="165.597310731258" x2="269.293" y2="175.363881765004" display="NULL"/><line fill="none" stroke="#1D1D1B" stroke-miterlimit="10" x1="269.293" y1="175.363881765004" x2="297.64" y2="173.684945140107" display="NULL"/><line fill="none" stroke="#1D1D1B" stroke-miterlimit="10" x1="297.64" y1="173.684945140107" x2="325.987" y2="179.462471948878" display="NULL"/><line fill="none" stroke="#1D1D1B" stroke-miterlimit="10" x1="325.987" y1="179.462471948878" x2="354.334" y2="188.944085258129" display="NULL"/><line fill="none" stroke="#1D1D1B" stroke-miterlimit="10" x1="354.334" y1="188.944085258129" x2="382.681" y2="164.638577292404" display="NULL"/><line fill="none" stroke="#1D1D1B" stroke-miterlimit="10" x1="382.681" y1="164.638577292404" x2="411.028" y2="176.982958288652" display="NULL"/>
</g>
<g id="gC">
	<polygon fill="#B2B2B2" points="160.157,143.111883777225 157.154,143.095883777225 155.439,145.565883777225 154.526,142.698883777225 151.653,141.826883777225 154.091,140.071883777225 154.03,137.061883777225 156.45,138.843883777225 159.286,137.855883777225 158.344,140.712883777225"/><polygon fill="#B2B2B2" points="415.271,152.457026156639 412.268,152.441026156639 410.553,154.911026156639 409.64,152.044026156639 406.767,151.172026156639 409.205,149.417026156639 409.144,146.407026156639 411.564,148.189026156639 414.4,147.201026156639 413.458,150.058026156639"/><polygon fill="#B2B2B2" points="386.925,144.773675919773 383.922,144.757675919773 382.207,147.227675919773 381.294,144.360675919773 378.421,143.488675919773 380.859,141.733675919773 380.798,138.723675919773 383.218,140.505675919773 386.054,139.517675919773 385.112,142.374675919773"/><polygon fill="#B2B2B2" points="358.579,144.691763100166 355.576,144.675763100166 353.861,147.145763100166 352.948,144.278763100166 350.075,143.406763100166 352.513,141.651763100166 352.452,138.641763100166 354.872,140.423763100166 357.708,139.435763100166 356.766,142.292763100166"/><polygon fill="#B2B2B2" points="330.233,155.625239090582 327.23,155.609239090582 325.515,158.079239090582 324.602,155.212239090582 321.729,154.340239090582 324.167,152.585239090582 324.106,149.575239090582 326.526,151.357239090582 329.362,150.369239090582 328.42,153.226239090582"/><polygon fill="#B2B2B2" points="301.887,132.937894292473 298.884,132.921894292473 297.169,135.391894292473 296.256,132.524894292473 293.383,131.652894292473 295.821,129.897894292473 295.76,126.887894292473 298.18,128.669894292473 301.016,127.681894292473 300.074,130.538894292473"/><polygon fill="#B2B2B2" points="273.541,166.697959565428 270.538,166.681959565428 268.823,169.151959565428 267.91,166.284959565428 265.037,165.412959565428 267.475,163.657959565428 267.414,160.647959565428 269.834,162.429959565428 272.67,161.441959565428 271.728,164.298959565428"/><polygon fill="#B2B2B2" points="245.195,166.255748950261 242.192,166.239748950261 240.477,168.709748950261 239.564,165.842748950261 236.691,164.970748950261 239.129,163.215748950261 239.068,160.205748950261 241.488,161.987748950261 244.324,160.999748950261 243.382,163.856748950261"/><polygon fill="#B2B2B2" points="216.849,157.239236985227 213.846,157.223236985227 212.131,159.693236985227 211.218,156.826236985227 208.345,155.954236985227 210.783,154.199236985227 210.722,151.189236985227 213.142,152.971236985227 215.978,151.983236985227 215.036,154.840236985227"/>
	<polygon fill="#B2B2B2" points="188.503,136.403506808327 185.5,136.387506808327 183.785,138.857506808327 182.872,135.990506808327 179.999,135.118506808327 182.437,133.363506808327 182.376,130.353506808327 184.796,132.135506808327 187.632,131.147506808327 186.69,134.004506808327"/>
</g>
<g id="gB">
	<circle fill="#1D1D1B" cx="155.905" cy="121.296801704494" r="3.543"/><circle fill="#1D1D1B" cx="411.019" cy="118.356064632772" r="3.543"/><circle fill="#1D1D1B" cx="382.673" cy="112.530957722679" r="3.543"/><circle fill="#1D1D1B" cx="325.981" cy="126.754261210042" r="3.543"/><circle fill="#1D1D1B" cx="297.635" cy="114.683957597253" r="3.543"/><circle fill="#1D1D1B" cx="269.289" cy="125.79172003224" r="3.543"/><circle fill="#1D1D1B" cx="240.943" cy="116.786434051891" r="3.543"/><circle fill="#1D1D1B" cx="212.597" cy="117.84650857715" r="3.543"/>
	<circle fill="#1D1D1B" cx="184.251" cy="107.594436471086" r="3.543"/>
	<line fill="none" stroke="#1D1D1B" stroke-miterlimit="10" x1="155.905" y1="121.296801704494" x2="184.252" y2="107.594436471086" display="NULL"/><line fill="none" stroke="#1D1D1B" stroke-miterlimit="10" x1="184.252" y1="107.594436471086" x2="212.599" y2="117.84650857715" display="NULL"/><line fill="none" stroke="#1D1D1B" stroke-miterlimit="10" x1="212.599" y1="117.84650857715" x2="240.946" y2="116.786434051891" display="NULL"/><line fill="none" stroke="#1D1D1B" stroke-miterlimit="10" x1="240.946" y1="116.786434051891" x2="269.293" y2="125.79172003224" display="NULL"/><line fill="none" stroke="#1D1D1B" stroke-miterlimit="10" x1="269.293" y1="125.79172003224" x2="297.64" y2="114.683957597253" display="NULL"/><line fill="none" stroke="#1D1D1B" stroke-miterlimit="10" x1="297.64" y1="114.683957597253" x2="325.987" y2="126.754261210042" display="NULL"/><line fill="none" stroke="#1D1D1B" stroke-miterlimit="10" x1="382.681" y1="112.530957722679" x2="411.028" y2="118.356064632772" display="NULL"/>
</g>
<g id="gA">
	<rect x="153.07" y="86.8024548876807" fill="#706F6F" width="5.67" height="5.669"/>
	<line fill="none" stroke="#706F6F" stroke-miterlimit="10" x1="155.905" y1="89.6369548876807" x2="184.252" y2="89.1099788721902" display="NULL"/>
	<rect x="181.417" y="86.2754788721902" fill="#706F6F" width="5.67" height="5.669"/>
	<line fill="none" stroke="#706F6F" stroke-miterlimit="10" x1="184.252" y1="89.1099788721902" x2="212.598" y2="92.5913533218913" display="NULL"/>
	<rect x="209.763" y="89.7568533218913" fill="#706F6F" width="5.67" height="5.669"/>
	<line fill="none" stroke="#706F6F" stroke-miterlimit="10" x1="212.598" y1="92.5913533218913" x2="240.945" y2="94.0548518416767" display="NULL"/>
	<rect x="238.109" y="91.2203518416767" fill="#706F6F" width="5.67" height="5.669"/>
	<line fill="none" stroke="#706F6F" stroke-miterlimit="10" x1="240.944" y1="94.0548518416767" x2="269.291" y2="89.5503907732649" display="NULL"/>
	<rect x="266.455" y="86.7158907732649" fill="#706F6F" width="5.67" height="5.669"/>
	<line fill="none" stroke="#706F6F" stroke-miterlimit="10" x1="269.29" y1="89.5503907732649" x2="297.637" y2="99.8564760564376" display="NULL"/>
	<rect x="294.802" y="97.0219760564376" fill="#706F6F" width="5.67" height="5.669"/>
	<line fill="none" stroke="#706F6F" stroke-miterlimit="10" x1="297.636" y1="99.8564760564376" x2="325.983" y2="89.4474461647993" display="NULL"/>
	<rect x="323.148" y="86.6129461647993" fill="#706F6F" width="5.67" height="5.669"/>
	<line fill="none" stroke="#706F6F" stroke-miterlimit="10" x1="325.983" y1="89.4474461647993" x2="354.329" y2="93.3009237680534" display="NULL"/>
	<rect x="351.494" y="90.4664237680534" fill="#706F6F" width="5.67" height="5.669"/>
	<line fill="none" stroke="#706F6F" stroke-miterlimit="10" x1="354.329" y1="93.3009237680534" x2="382.676" y2="93.3348358648575" display="NULL"/>
	<rect x="379.84" y="90.5003358648575" fill="#706F6F" width="5.67" height="5.669"/>
	<line fill="none" stroke="#706F6F" stroke-miterlimit="10" x1="382.675" y1="93.3348358648575" x2="411.022" y2="96.0355203816399" display="NULL"/>
	<rect x="408.186" y="93.2010203816399" fill="#706F6F" width="5.67" height="5.669"/>
</g>
</svg>
